<?xml version="1.0" encoding="UTF-8" standalone="no"?>
<svg width="100px" height="22px" viewBox="0 0 100 22" version="1.1" xmlns="http://www.w3.org/2000/svg" xmlns:xlink="http://www.w3.org/1999/xlink" xmlns:sketch="http://www.bohemiancoding.com/sketch/ns">
    <!-- Generator: Sketch 3.4.4 (17249) - http://www.bohemiancoding.com/sketch -->
    <title>logo</title>
    <desc>Created with Sketch.</desc>
    <defs>
        <path id="path-1" d="M0,0.225278731 L99.6583673,0.225278731 L99.6583673,21.5909091 L0,21.5909091"></path>
        <path id="path-3" d="M0,0.225278731 L99.6583673,0.225278731 L99.6583673,21.5909091 L0,21.5909091"></path>
    </defs>
    <g id="Page-1" stroke="none" stroke-width="1" fill="none" fill-rule="evenodd" sketch:type="MSPage">
        <g id="option-2-copy-3" sketch:type="MSArtboardGroup" transform="translate(-107.000000, -16.000000)">
            <g id="Page-1-Copy" sketch:type="MSLayerGroup" transform="translate(107.000000, 16.000000)">
                <g id="logo">
                    <g id="Group-3">
                        <mask id="mask-2" sketch:name="Clip 2" fill="white">
                            <use xlink:href="#path-1"></use>
                        </mask>
                        <g id="Clip-2"></g>
                        <path d="M1.75644898,21.5909091 C1.62461224,21.5909091 1.48216327,21.5750214 1.3462449,21.5412093 C0.404204082,21.3138937 -0.178244898,20.3700043 0.0491020408,19.4277444 L4.27971429,1.88411235 C4.47032653,1.09502573 5.17685714,0.540994854 5.98665306,0.540994854 L10.7809388,0.540994854 C11.594,0.540994854 12.2972653,1.09502573 12.4870612,1.88411235 L16.3176735,17.7603559 L19.0850204,17.7603559 L19.0850204,2.29352487 C19.0850204,1.32600772 19.8735918,0.540994854 20.8437959,0.540994854 L29.6295102,0.540994854 C30.5997143,0.540994854 31.3903265,1.32600772 31.3903265,2.29352487 L31.3903265,10.2956046 L35.4658367,17.7603559 L37.1384898,17.7603559 L37.1384898,2.29352487 C37.1384898,1.32600772 37.9250204,0.540994854 38.8952245,0.540994854 L47.6809388,0.540994854 C48.6511429,0.540994854 49.4376735,1.32600772 49.4376735,2.29352487 L49.4376735,10.2956046 L53.5172653,17.7603559 L65.5731837,17.7603559 L65.5731837,7.5547813 C65.5731837,6.58848628 66.3605306,5.80062178 67.3278776,5.80062178 C68.2993061,5.80062178 69.0850204,6.58848628 69.0850204,7.5547813 L69.0850204,19.5128859 C69.0850204,20.4804031 68.2993061,21.2682676 67.3278776,21.2682676 L52.4731837,21.2682676 C51.831551,21.2682676 51.2405306,20.9171098 50.9299184,20.3533019 L46.1384898,11.5829117 C45.9960408,11.3266724 45.9250204,11.0378431 45.9250204,10.74494 L45.9250204,4.04890652 L40.6552245,4.04890652 L40.6552245,19.5128859 C40.6552245,20.4804031 39.8674694,21.2682676 38.8952245,21.2682676 L34.4213469,21.2682676 C33.7801224,21.2682676 33.1870612,20.9171098 32.876449,20.3533019 L28.0870612,11.5829117 C27.9474694,11.3266724 27.8731837,11.0378431 27.8731837,10.74494 L27.8731837,4.04890652 L22.6017551,4.04890652 L22.6017551,19.5128859 C22.6017551,20.4804031 21.8152245,21.2682676 20.8437959,21.2682676 L14.9323673,21.2682676 C14.1205306,21.2682676 13.4127755,20.7109777 13.2242041,19.9214837 L9.39685714,4.04890652 L7.37195918,4.04890652 L3.46665306,20.2486063 C3.27195918,21.0515437 2.55073469,21.5909091 1.75644898,21.5909091" id="Fill-1" fill="#FEFEFE" sketch:type="MSShapeGroup" mask="url(#mask-2)"></path>
                    </g>
                    <g id="Group-6">
                        <mask id="mask-4" sketch:name="Clip 5" fill="white">
                            <use xlink:href="#path-3"></use>
                        </mask>
                        <g id="Clip-5"></g>
                        <path d="M94.486449,21.2682676 L90.6521633,21.2682676 C89.8133878,21.2682676 89.0876735,20.6730918 88.9293061,19.8485635 L85.848898,4.04890652 L85.3921633,4.04890652 L82.3117551,19.8485635 C82.1505306,20.6730918 81.4297143,21.2682676 80.5872653,21.2682676 L76.7525714,21.2682676 C75.9121633,21.2682676 75.1897143,20.6730918 75.0301224,19.8485635 L71.9517551,4.04890652 L58.3835918,4.04890652 L58.3835918,14.2540738 C58.3835918,15.2224057 57.5978776,16.005789 56.6244082,16.005789 C55.6562449,16.005789 54.868898,15.2224057 54.868898,14.2540738 L54.868898,2.29433962 C54.868898,1.32600772 55.6562449,0.540994854 56.6244082,0.540994854 L73.3999184,0.540994854 C74.241551,0.540994854 74.9648163,1.13535592 75.1235918,1.96069897 L78.204,17.7603559 L79.141551,17.7603559 L82.2170612,1.96069897 C82.379102,1.13535592 83.1019592,0.540994854 83.9423673,0.540994854 L87.2970612,0.540994854 C88.1366531,0.540994854 88.8599184,1.13535592 89.0219592,1.96069897 L92.099102,17.7603559 L93.0374694,17.7603559 L96.1778776,1.64294597 C96.3635918,0.692538593 97.2856327,0.0737349914 98.2370612,0.257461407 C99.1884898,0.442817324 99.8125714,1.36552316 99.6252245,2.31430103 L96.2097143,19.8485635 C96.0513469,20.6730918 95.3284898,21.2682676 94.486449,21.2682676" id="Fill-4" fill="#FEFEFE" sketch:type="MSShapeGroup" mask="url(#mask-4)"></path>
                    </g>
                </g>
            </g>
        </g>
    </g>
</svg>